PathFileType	4	(X/Y/Z)	s02c0102.trc
DataRate	CameraRate	NumFrames	NumMarkers	Units	OrigDataRate	OrigDataStartFrame	OrigNumFrames
200	200	4	51	mm	200	1250	2000
Frame#	Time	racr			lacr			c7			jug			rlel			rdr			llel			ldr			s2			lic			ric			lasi			rasi			rpsi			lpsi			rgt			lgt			rth1			rth2			rth3			rth4			rlfc			rmfc			rsh1			rsh2			rsh3			rsh4			rlmal			rmmal			rcal			rtoe			rmt5			rmt1			lth1			lth2			lth4			lth3			llfc			lmfc			lsh1			lsh2			lsh3			lsh4			llmal			lmmal			lcal			ltoe			lmt5			SBIKE			LBIKE			RBIKE			
		X1	Y1	Z1	X2	Y2	Z2	X3	Y3	Z3	X4	Y4	Z4	X5	Y5	Z5	X6	Y6	Z6	X7	Y7	Z7	X8	Y8	Z8	X9	Y9	Z9	X10	Y10	Z10	X11	Y11	Z11	X12	Y12	Z12	X13	Y13	Z13	X14	Y14	Z14	X15	Y15	Z15	X16	Y16	Z16	X17	Y17	Z17	X18	Y18	Z18	X19	Y19	Z19	X20	Y20	Z20	X21	Y21	Z21	X22	Y22	Z22	X23	Y23	Z23	X24	Y24	Z24	X25	Y25	Z25	X26	Y26	Z26	X27	Y27	Z27	X28	Y28	Z28	X29	Y29	Z29	X30	Y30	Z30	X31	Y31	Z31	X32	Y32	Z32	X33	Y33	Z33	X34	Y34	Z34	X35	Y35	Z35	X36	Y36	Z36	X37	Y37	Z37	X38	Y38	Z38	X39	Y39	Z39	X40	Y40	Z40	X41	Y41	Z41	X42	Y42	Z42	X43	Y43	Z43	X44	Y44	Z44	X45	Y45	Z45	X46	Y46	Z46	X47	Y47	Z47	X48	Y48	Z48	X49	Y49	Z49	X50	Y50	Z50	X51	Y51	Z51	
1250	6.2500	553.248334	1197.176486	-166.927361	533.138778	1201.452275	-494.987609	535.790212	1229.928658	-333.447592	472.498201	1099.468244	-331.394168	560.584446	958.989508	-50.987769	723.912991	844.968510	-122.620196	489.734381	935.298428	-583.061203	693.073852	851.191912	-515.470074	3.484821	1098.928897	-313.683511	142.154617	1099.214240	-451.258088	134.509466	1101.238171	-171.965562	180.314046	1075.462084	-432.404085	183.753265	1069.391101	-199.304666	33.946213	1151.081708	-266.221743	41.506366	1162.464372	-350.558961	106.795044	1012.309824	-130.975948	86.644616	1022.302645	-496.321235	195.124578	970.603316	-131.930999	279.116455	943.344852	-132.909550	339.423842	888.284223	-106.251651	296.244227	965.904233	-158.233804	427.302540	777.416767	-132.137476	414.955401	759.863808	-243.725531	366.882117	679.990368	-122.612064	313.762392	609.762140	-146.193682	236.961524	571.077560	-142.249154	324.282233	604.959166	-182.975722	139.893683	507.491809	-150.408929	164.612533	518.113935	-230.274736	57.448474	525.658353	-196.727571	238.445213	303.306982	-190.310402	155.437550	376.795405	-135.086904	182.478322	362.747037	-242.880248	216.299803	936.506776	-503.206334	292.945743	896.421958	-496.932979	315.310163	921.474230	-482.011864	339.628086	820.567735	-495.513048	410.807852	749.961844	-472.129105	419.047476	717.142396	-369.773226	405.113304	644.037472	-495.846079	413.463106	559.154085	-482.239046	377.136035	476.222539	-487.339706	430.167950	558.439740	-444.859324	340.356502	373.471017	-479.691280	356.245040	368.967840	-401.737646	273.983416	322.036953	-445.253681	562.719489	290.622920	-442.666969	456.038682	278.232653	-506.724950	-165.385908	856.898735	-317.136271	32.805647	81.632817	-515.246355	32.943048	82.050262	-115.084602	
1251	6.2550	552.939019	1197.211977	-165.027302	535.370359	1199.588239	-493.624214	537.123299	1229.023058	-331.611623	472.464818	1099.244624	-329.212809	560.101688	958.928522	-49.666669	723.905870	844.826081	-122.943983	491.329810	934.205050	-584.063277	693.774167	849.937481	-515.656160	5.107354	1098.334178	-315.920618	144.531655	1097.417239	-451.432930	134.933826	1101.514692	-172.644878	182.569365	1074.243881	-432.905728	184.653335	1069.872861	-199.528788	34.836912	1150.454714	-267.607316	42.905939	1161.093805	-351.920432	108.577635	1013.297151	-130.900687	89.466793	1020.022805	-496.836478	196.514364	973.530430	-132.259215	281.364995	948.473562	-132.213532	342.307859	894.096606	-105.916769	297.799744	970.880695	-158.202165	432.699006	785.105238	-131.680326	422.451137	768.157188	-245.594903	371.809930	687.841367	-122.410300	317.314326	618.589695	-146.486843	240.825476	580.544421	-142.365110	329.252776	613.745110	-182.111713	143.253818	517.892329	-150.880484	166.177131	528.854595	-230.296797	60.708248	536.278412	-197.126897	241.814027	314.016500	-190.461147	159.191764	387.455562	-134.955979	185.826535	373.200620	-243.174524	217.525209	932.561497	-503.551114	293.227179	890.741231	-497.725265	316.062450	914.970870	-482.164854	337.725041	813.482360	-495.395232	406.965011	741.615193	-472.358194	411.232239	707.660214	-370.602011	401.296377	635.779988	-496.395493	410.475811	550.902502	-482.863438	375.033623	467.609496	-488.008863	427.148456	550.450618	-445.533536	339.397417	364.925583	-480.337270	355.052271	360.444945	-402.454166	272.555306	315.041608	-446.098193	560.627834	277.948510	-442.485484	453.957956	267.654351	-506.713336	-165.270304	857.023502	-317.098613	32.832458	81.555466	-515.260518	32.986943	82.037090	-115.092291	
1252	6.2600	552.635288	1197.612278	-163.192370	537.541715	1198.299193	-492.023610	538.442029	1228.537462	-329.635222	472.396600	1099.468894	-326.971500	559.792705	959.004371	-48.665975	723.995310	844.779593	-123.515634	493.081599	933.856054	-585.007482	694.630888	848.782503	-515.599107	6.443568	1098.288297	-318.083969	146.618662	1096.283052	-452.018041	135.328162	1102.426061	-173.343314	184.953704	1073.317627	-433.310771	185.401936	1070.915575	-199.820779	35.834123	1150.467722	-269.183133	44.203797	1160.333481	-353.323897	110.205328	1014.806933	-130.811509	92.496740	1017.725418	-497.275279	197.706813	976.901789	-132.656253	283.175491	953.486712	-131.897860	344.671901	899.957611	-105.882581	299.500367	976.923310	-157.147042	437.788647	793.218390	-131.332414	427.840716	776.077098	-245.145819	376.711838	696.030665	-122.203561	321.598351	627.467883	-146.419785	244.845241	590.014032	-142.538659	332.952516	621.138375	-183.454122	146.903775	528.118465	-151.294530	168.640607	538.845301	-230.763857	64.181664	546.407694	-197.460075	245.751168	324.547288	-190.745127	162.972008	397.820246	-135.373976	189.637157	383.618691	-243.402140	218.674539	928.674170	-503.943263	293.262246	884.883458	-497.999495	316.641105	908.531056	-482.433110	335.639001	806.473716	-495.508720	402.807830	733.236339	-472.758949	406.660936	700.678077	-371.563644	397.010678	627.801424	-496.997155	406.905109	542.996136	-483.698435	372.307946	459.380027	-488.667376	423.577889	542.815550	-445.961818	337.972125	356.711008	-480.850222	353.242087	352.108973	-403.137625	270.470835	308.616271	-447.011724	557.685025	265.735419	-441.989859	451.206224	257.533001	-506.743848	-165.198943	857.202624	-316.991548	32.835632	81.572215	-515.264714	32.985308	82.033613	-115.099405	
1253	6.2650	552.295964	1198.258341	-161.280508	539.714481	1197.582928	-490.347105	539.741370	1228.400189	-327.724821	472.321738	1100.052003	-324.895759	559.868711	959.157093	-48.126845	724.230645	844.966391	-123.620999	495.242982	934.265871	-586.036148	695.612471	847.830379	-515.378259	7.666498	1098.851885	-320.919139	149.796540	1096.101444	-452.188512	135.642155	1103.479535	-174.040012	187.247062	1072.795359	-433.781956	186.209980	1072.339862	-200.202037	36.863056	1150.940982	-270.869809	46.828474	1161.217255	-355.491127	111.610100	1016.692162	-130.887146	95.630488	1015.622068	-497.509840	198.675734	980.507385	-133.040840	284.168448	958.659449	-131.962331	347.181290	906.421201	-105.392384	300.897311	982.755860	-156.038882	442.690516	801.717625	-131.009351	432.141856	783.809898	-243.734656	381.021606	704.589463	-122.259129	325.941730	636.289034	-146.378001	248.952047	599.478019	-142.815162	337.281839	629.785783	-183.634868	150.803940	538.181919	-151.740500	172.531917	548.811084	-231.204217	68.350077	556.167941	-198.136661	250.425725	335.034046	-190.944601	167.371498	408.154751	-135.584436	193.975560	393.806090	-243.639434	219.611757	924.878558	-504.366905	293.059210	879.017196	-498.368893	316.992032	902.136306	-482.684421	333.239270	799.614081	-495.496093	398.460054	724.985670	-472.823983	400.919179	692.835878	-372.628847	392.117425	620.225256	-497.636103	402.747270	535.531078	-484.123524	368.867607	451.629253	-489.359043	419.469801	535.018437	-445.852088	335.615030	349.061475	-481.623731	350.366222	344.279212	-404.069953	267.852896	302.434488	-447.846160	554.108744	253.811531	-441.764439	447.668258	247.701247	-506.788936	-165.284120	857.197433	-317.100935	32.807421	81.603797	-515.269687	32.983584	82.040589	-115.112642	
